<?xml version="1.0" standalone="no"?>
<!DOCTYPE svg PUBLIC "-//W3C//DTD SVG 20010904//EN"
 "http://www.w3.org/TR/2001/REC-SVG-20010904/DTD/svg10.dtd">
<svg version="1.0" xmlns="http://www.w3.org/2000/svg"
 width="160.000000pt" height="160.000000pt" viewBox="0 0 160.000000 160.000000"
 preserveAspectRatio="xMidYMid meet">

<g transform="translate(0.000000,160.000000) scale(0.100000,-0.100000)"
fill="#000000" stroke="none">
<path d="M0 1050 l0 -550 250 0 250 0 0 -250 0 -250 550 0 550 0 0 550 0 550
-250 0 -250 0 0 250 0 250 -550 0 -550 0 0 -550z m1000 250 l0 -200 50 0 50 0
0 -50 0 -50 200 0 200 0 0 -450 0 -450 -450 0 -450 0 0 200 0 200 -50 0 -50 0
0 50 0 50 -200 0 -200 0 0 450 0 450 450 0 450 0 0 -200z"/>
</g>
</svg>
